<svg id="Group_12" data-name="Group 12" xmlns="http://www.w3.org/2000/svg" xmlns:xlink="http://www.w3.org/1999/xlink" width="606.678" height="436.213" viewBox="0 0 606.678 436.213">
  <defs>
    <clipPath id="clip-path">
      <rect id="Rectangle_47" data-name="Rectangle 47" width="606.678" height="436.213" fill="none"/>
    </clipPath>
  </defs>
  <g id="Group_11" data-name="Group 11" clip-path="url(#clip-path)">
    <path id="Path_36" data-name="Path 36" d="M582.519,132.219c-2.236-26.309-23.729-47.091-48.871-52.777l-15.5-2.486c-10.687-1.4-16.995,8.893-19.689,17.575-.94,3.032-1.5,6.175-2.146,9.278a34.838,34.838,0,0,1-1,3.674c-.027-.043-.665,1.546-.781,1.761-.207.365-.44.713-.67,1.063-.062.07-.124.141-.2.229-.2.216-1.012.915-1.237,1.14-.467.305-.941.6-1.416.888a53.332,53.332,0,0,1-5.257,2.673c-3.362,1.56-6.8,2.94-10.117,4.592-8.378,4.168-15.807,10.592-18.521,19.82-3.093,10.517,2.069,22.424,11.881,27.187a62.849,62.849,0,0,0,11.779,3.919c.852.223,1.7.472,2.539.729.16.048.292.087.4.117.162.092.365.2.63.345.013.005,2.328,1.566,1.872,1.146,1.034.844,2.008,1.766,2.978,2.679,7.55,7.108,15.146,13.241,25.4,15.881a49.473,49.473,0,0,0,28.23-1.575c23.859-8.336,41.88-32.038,39.686-57.856" transform="translate(-100.091 -16.855)" fill="#648c7d"/>
    <path id="Path_37" data-name="Path 37" d="M316.812,217.591a36.625,36.625,0,0,0-12.38-11.549,48.866,48.866,0,0,0-6.033-2.894c-1.6-.677-3.194-1.347-4.8-1.994l-2.122-.84q1.31.481-.642-.407a47.3,47.3,0,0,1-10.576-7.278,128.972,128.972,0,0,1-12.313-12.9c-1.824-2.122-3.695-4.21-5.481-6.363-.146-.176-.263-.317-.363-.436-.106-.144-.241-.324-.441-.588-.624-.823-1.247-1.645-1.877-2.462-3.544-4.6-7.08-8.566-12.032-11.727-9.84-6.282-22.7-5.168-32.785-.336-10.605,5.08-17.358,16.12-23.108,26.054a39.627,39.627,0,0,0-16.595,6.289c-8.08,5.653-13.309,14.286-15.554,23.81-4.1,17.39-27.64,30.288-24.346,47.473,6.526,34.026,39.03,21.88,45.2,29.223a76.611,76.611,0,0,0,23.417,18.2,81.435,81.435,0,0,0,30.507,8.663c11.636,1.029,22.857-1.785,33.26-6.858,10.355-5.049,19.848-11.8,25.848-21.795,2.235-3.724,4.012-7.712,6.185-11.474a46.5,46.5,0,0,1,2.937-4.367c-.492.683,1-1.222,1.153-1.4.841-1.014,1.713-2,2.581-2.994,5.99-6.829,11.765-13.353,15.116-21.912,3.792-9.684.585-20.759-4.752-29.138" transform="translate(-29.628 -33.745)" fill="#ed6049"/>
    <path id="Path_38" data-name="Path 38" d="M459.054,322.67a6.327,6.327,0,1,1-7.588,10.125l-15.945-11.95a6.326,6.326,0,0,1,7.588-10.125Z" transform="translate(-94.994 -67.892)" fill="none" stroke="#43383e" stroke-width="2"/>
    <path id="Path_39" data-name="Path 39" d="M489.875,309a6.326,6.326,0,1,1-12.167,3.471l-5.464-19.162a6.326,6.326,0,0,1,12.167-3.471Z" transform="translate(-103.553 -62.58)" fill="none" stroke="#43383e" stroke-width="2"/>
    <path id="Path_40" data-name="Path 40" d="M384.084,199.491h-7.246v-8h-7.7v8h-7.246V208h7.246v8h7.7v-8h7.246Z" transform="translate(-79.395 -42.011)" fill="none" stroke="#ef6249" stroke-width="3"/>
    <path id="Path_41" data-name="Path 41" d="M351.585,131.057H340.049V119.521H327.781v11.536H316.246v12.267h11.536v11.537h12.267V143.324h11.536Z" transform="translate(-69.382 -26.222)" fill="none" stroke="#43383e" stroke-width="2"/>
    <path id="Path_42" data-name="Path 42" d="M317.839,231.868H302.3V216.325H285.767v15.543H270.223V248.4h15.544v15.545H302.3V248.4h15.544Z" transform="translate(-59.284 -47.46)" fill="#fff"/>
    <path id="Path_43" data-name="Path 43" d="M25.312,185.08a12.656,12.656,0,1,1-12.656-12.656A12.656,12.656,0,0,1,25.312,185.08" transform="translate(0 -37.828)" fill="#a1b9b0"/>
    <path id="Path_44" data-name="Path 44" d="M28.286,346.111a7.365,7.365,0,1,1-7.366-7.366,7.366,7.366,0,0,1,7.366,7.366" transform="translate(-2.974 -74.318)" fill="#648c7d"/>
    <circle id="Ellipse_1" data-name="Ellipse 1" cx="11.63" cy="11.63" r="11.63" transform="translate(354.565 54.637) rotate(-22.5)" fill="none" stroke="#ef6249" stroke-width="3"/>
    <path id="Path_45" data-name="Path 45" d="M624.12,213.851l-72.27,21.318s-30.811,27.517-38.771,57.764C505.273,322.6,495.873,391.29,488.848,455.3h214.7c-6.245-35.127-44.495-219.351-79.427-241.449" transform="translate(-107.249 -46.917)" fill="#f2cf63"/>
    <path id="Path_46" data-name="Path 46" d="M636.575,310.861V502.111a1.953,1.953,0,0,0,3.9,0V310.861a1.953,1.953,0,0,0-3.9,0" transform="translate(-139.659 -67.786)" fill="#efe6d2"/>
    <path id="Path_47" data-name="Path 47" d="M561.872,253.823a73.817,73.817,0,0,0,8.126,2.03,49.389,49.389,0,0,0,6.639.934c11.229.969,23.4.559,33.28-3.989a62.806,62.806,0,0,0,13.932-8.761,66.136,66.136,0,0,0,5.387-5.282c.938-1.046,1.867-2.1,2.742-3.2.18-.227.311-.389.422-.525.105-.154.252-.361.469-.664a175.3,175.3,0,0,0,11.156-18.424,27.731,27.731,0,0,0-5.31-4.553c-31.483-19.916-63.944-2.882-72.27,21.318A183.451,183.451,0,0,0,551.808,247.2c1.8.9,8.31,6.088,10.064,6.623" transform="translate(-121.062 -44.456)" fill="#fff"/>
    <path id="Path_48" data-name="Path 48" d="M536.341,293.1c-3.96,18.883-8.83,37.567-11.136,56.752-1.113,9.268-2.65,18.5-4.072,27.719-4.022,26.113-8.3,52.2-11.9,78.37-.743,5.4-1.8,10.967-1.842,16.437-.019,2.518,3.884,2.516,3.9,0,.055-7.458,1.639-15.085,2.695-22.441,1.9-13.212,3.942-26.4,5.986-39.592,3.222-20.8,7.492-41.741,9.377-62.719,1.618-18.011,7.054-35.838,10.756-53.489.514-2.456-3.247-3.5-3.764-1.038" transform="translate(-111.317 -63.995)" fill="#efe6d2"/>
    <path id="Path_49" data-name="Path 49" d="M568.494,297.579a8.331,8.331,0,1,1-8.332-8.331,8.332,8.332,0,0,1,8.332,8.331" transform="translate(-121.067 -63.458)" fill="#efe6d2"/>
    <path id="Path_50" data-name="Path 50" d="M591.9,349.76a8.331,8.331,0,1,1-8.333-8.331,8.333,8.333,0,0,1,8.333,8.331" transform="translate(-126.203 -74.907)" fill="#efe6d2"/>
    <path id="Path_51" data-name="Path 51" d="M638.21,303.941a8.331,8.331,0,1,1-8.332-8.331,8.332,8.332,0,0,1,8.332,8.331" transform="translate(-136.362 -64.854)" fill="#efe6d2"/>
    <path id="Path_52" data-name="Path 52" d="M552.879,398.789a8.331,8.331,0,1,1-8.332-8.331,8.332,8.332,0,0,1,8.332,8.331" transform="translate(-117.641 -85.663)" fill="#efe6d2"/>
    <path id="Path_53" data-name="Path 53" d="M632.359,407.429a8.332,8.332,0,1,1-8.333-8.331,8.333,8.333,0,0,1,8.333,8.331" transform="translate(-135.078 -87.559)" fill="#efe6d2"/>
    <path id="Path_54" data-name="Path 54" d="M583.9,438.452a8.331,8.331,0,1,1-8.333-8.331,8.333,8.333,0,0,1,8.333,8.331" transform="translate(-124.447 -94.365)" fill="#efe6d2"/>
    <path id="Path_55" data-name="Path 55" d="M547.387,485.567a8.331,8.331,0,1,1-8.332-8.331,8.332,8.332,0,0,1,8.332,8.331" transform="translate(-116.436 -104.701)" fill="#efe6d2"/>
    <path id="Path_56" data-name="Path 56" d="M627.537,485.567a8.331,8.331,0,1,1-8.332-8.331,8.332,8.332,0,0,1,8.332,8.331" transform="translate(-134.02 -104.701)" fill="#efe6d2"/>
    <path id="Path_57" data-name="Path 57" d="M670.358,350.483a8.331,8.331,0,1,1-8.332-8.331,8.332,8.332,0,0,1,8.332,8.331" transform="translate(-143.415 -75.065)" fill="#efe6d2"/>
    <path id="Path_58" data-name="Path 58" d="M702.214,306.633a8.331,8.331,0,1,1-8.332-8.331,8.332,8.332,0,0,1,8.332,8.331" transform="translate(-150.404 -65.445)" fill="#efe6d2"/>
    <path id="Path_59" data-name="Path 59" d="M720.21,388.116a8.331,8.331,0,1,1-8.332-8.331,8.333,8.333,0,0,1,8.332,8.331" transform="translate(-154.352 -83.321)" fill="#efe6d2"/>
    <path id="Path_60" data-name="Path 60" d="M681.03,438.452a8.331,8.331,0,1,1-8.332-8.331,8.332,8.332,0,0,1,8.332,8.331" transform="translate(-145.756 -94.365)" fill="#efe6d2"/>
    <path id="Path_61" data-name="Path 61" d="M737.544,473.316a8.331,8.331,0,1,1-8.332-8.331,8.332,8.332,0,0,1,8.332,8.331" transform="translate(-158.155 -102.014)" fill="#efe6d2"/>
    <path id="Path_62" data-name="Path 62" d="M686.606,508.49a8.331,8.331,0,1,1-8.332-8.331,8.332,8.332,0,0,1,8.332,8.331" transform="translate(-146.98 -109.73)" fill="#efe6d2"/>
    <path id="Path_63" data-name="Path 63" d="M517.592,438.452a8.331,8.331,0,1,1-8.332-8.331,8.332,8.332,0,0,1,8.332,8.331" transform="translate(-109.899 -94.365)" fill="#efe6d2"/>
    <path id="Path_64" data-name="Path 64" d="M533.495,339.81a8.331,8.331,0,1,1-8.332-8.331,8.332,8.332,0,0,1,8.332,8.331" transform="translate(-113.388 -72.724)" fill="#efe6d2"/>
    <path id="Path_65" data-name="Path 65" d="M642.827,200.536s-9.822,21.53-34.02,28.035-38.25-6.716-38.25-6.716l9.529-26.869,49.276-41.826Z" transform="translate(-125.175 -33.602)" fill="#f6adc0"/>
    <path id="Path_66" data-name="Path 66" d="M575.936,211.046c.345.258.842.632,1.017.737.736.445,1.488.865,2.258,1.247.414.162,1.1.439,1.3.5a32.557,32.557,0,0,0,3.32.885c.317.062,1.765.243,1.753.262a35.782,35.782,0,0,0,5.036.071c.486-.032,3.558-.48,2.17-.214.667-.122,1.333-.247,1.99-.411,1.124-.282,2.249-.575,3.343-.962.307-.108,1.793-.76,1.6-.646a26.64,26.64,0,0,0,3.421-1.968l.26-.186c.254-.218.511-.431.756-.66a24.542,24.542,0,0,0,2.237-2.425,41.966,41.966,0,0,0,3.514-6.2c1.775-3.859,3.633-9.987,5.288-14.878,2.117-6.255,4.628-12.393,6.486-18.732a48.525,48.525,0,0,0,1.471-7.25l-42.785,36.318-4.965,14c.179.171.349.351.532.515" transform="translate(-126.239 -35.15)" fill="#41363c"/>
    <path id="Path_67" data-name="Path 67" d="M622.964,133.414s-21.574,41.416-42.9,42.153c-45.177,1.56-38.291-74.158-38.291-74.158,20.3-14.051,18.485-38.251,18.485-38.251s9.775,24.736,24.719,33.566a106.175,106.175,0,0,0,33.306,12.75c6.506-7.633,17.173-12.75,24.459,1.3,4.232,8.162-3.642,23.678-19.777,22.638" transform="translate(-118.778 -13.856)" fill="#f6adc0"/>
    <path id="Path_68" data-name="Path 68" d="M551.768,132.721c0,3.072-1.092,5.562-2.439,5.562s-2.439-2.49-2.439-5.562,1.092-5.562,2.439-5.562,2.439,2.49,2.439,5.562" transform="translate(-119.983 -27.898)" fill="#3c2415"/>
    <path id="Path_69" data-name="Path 69" d="M584.518,132.721c0,3.072-1.092,5.562-2.439,5.562s-2.439-2.49-2.439-5.562,1.092-5.562,2.439-5.562,2.439,2.49,2.439,5.562" transform="translate(-127.168 -27.898)" fill="#3c2415"/>
    <path id="Path_70" data-name="Path 70" d="M559.38,128.115c-1.5,7.056-3.957,20.809,3.6,25.267a1.465,1.465,0,0,0,1.478-2.528c-5.974-3.524-3.435-16.4-2.255-21.96.391-1.841-2.43-2.624-2.822-.778" transform="translate(-122.37 -27.876)" fill="#41363c"/>
    <path id="Path_71" data-name="Path 71" d="M589.77,163.449c0-.026-.009-.05-.014-.076-.016-.085-.033-.173-.049-.258a1.252,1.252,0,0,0-1.542-1.024,1.565,1.565,0,0,0-.608.149l-11.319,5.269a1.414,1.414,0,0,0-.725,1.264c.486,4.566,4.538,11.633,10.15,8.982,5.458-2.578,5.1-9.221,4.108-14.307" transform="translate(-126.261 -35.556)" fill="#3c2415"/>
    <path id="Path_72" data-name="Path 72" d="M614.525,146.477a7.318,7.318,0,1,1-7.318-7.318,7.318,7.318,0,0,1,7.318,7.318" transform="translate(-131.61 -30.53)" fill="#ed6049"/>
    <path id="Path_73" data-name="Path 73" d="M547.693,155.852a7.318,7.318,0,1,1-7.318-7.318,7.318,7.318,0,0,1,7.318,7.318" transform="translate(-116.948 -32.587)" fill="#ed6049"/>
    <path id="Path_74" data-name="Path 74" d="M656.649,123.047c-5.982-1.287-11.082,7.241-9.91,12.44.414,1.841,3.236,1.06,2.822-.778-.657-2.915,2.708-9.614,6.31-8.839,1.84.4,2.623-2.425.777-2.823" transform="translate(-141.852 -26.967)" fill="#3c2415"/>
    <path id="Path_75" data-name="Path 75" d="M599.045,109.707c0,1.592-2.851,2.881-6.37,2.881h-9.833c-3.518,0-6.37-1.29-6.37-2.881s2.852-2.88,6.37-2.88h9.833c3.518,0,6.37,1.29,6.37,2.88" transform="translate(-126.473 -23.437)" fill="#41363c"/>
    <path id="Path_76" data-name="Path 76" d="M553.3,109.707c0,1.592-2.852,2.881-6.37,2.881h-9.833c-3.518,0-6.37-1.29-6.37-2.881s2.852-2.88,6.37-2.88h9.833c3.518,0,6.37,1.29,6.37,2.88" transform="translate(-116.436 -23.437)" fill="#41363c"/>
    <path id="Path_77" data-name="Path 77" d="M544.192,193.869c-7.211,10.072-14.582,19.883-25.13,26.73-10.229,6.64-21.366,11.658-27.088,23.131-5,10.032-.564,21.734,6.451,29.587,4.363,4.884,10.4,7.549,16.541,9.823,9.878-28.039,37.1-52.355,37.1-52.355l.942-.278c.318-.9,7.67-21.781,9.148-26.631a28.847,28.847,0,0,1-17.965-10.007M533.722,215.1c-11.668,13.245-31.985,17.173-31.745,36.2.173,13.684,3.583,21.559,6.95,26.012a31.289,31.289,0,0,1-8.431-6.065,29.726,29.726,0,0,1-7.723-16.286c-.781-6.457,2.6-12.453,6.719-17.121,7.233-8.193,18.167-12.1,26.667-18.735,6.773-5.287,12.139-12.086,17.179-19.034a58.991,58.991,0,0,1-9.615,15.027" transform="translate(-107.466 -42.533)" fill="#41363c"/>
    <path id="Path_78" data-name="Path 78" d="M716.6,170.1c-6.777-12.093-20.189-16.326-31.658-22.369-9.371-4.937-19.721-12.724-24.845-22.681a47.17,47.17,0,0,1-1.934-5.492,47.516,47.516,0,0,1-1.458-12.071c.319-5.562,1.923-11.062,3.394-16.39,2.7-9.767,4.8-19.046,4.3-29.23-.861-17.322-7.766-35.387-20.984-46.994C632.192,5.02,616.193.671,601.561.059c-10.259-.429-20.989,1.443-30,6.4-15.422,5.227-20.6,20.985-20.6,20.985-17.433-5.724-29.288,24.962-31.3,35.569-1.53,8.068.077,33.064,16.881,37.228l-.016-2.992c14.58-1.19,18.508-17.671,19.848-32.119,3.4,12.7,10.6,24.156,22.469,30.9,11.451,6.5,24,5.556,34.578-.194.047,1.123,8.094-9.314,15.86-6.463,4.164,1.528,15.092,8,5.75,23.079-4.1,6.627-16.938,7.105-16.938,7.105.215,2.338,11.635,45.556,13.466,47.377,17.495,17.4,25.826,42.939,25.826,42.939l12.434,34.543c19.226-4.555,30.667-14.428,36.281-24.122a45.181,45.181,0,0,0,6.755-8.306c7.551-12,10.974-28.986,3.744-41.889M536.6,93.5l.311-5.947c7.737-5.524,13.526-12.571,16.466-21.14C552.085,79.011,548.5,92.007,536.6,93.5m43.056-.378c-13.619-7.735-20.354-22.654-22.177-37.76,8.075,17.3,24.716,35.119,51.383,39.433a32.132,32.132,0,0,1-29.206-1.673m3.2-88.332c19.575-5.6,44.095.1,58.486,12.153,13.743,11.505,19.9,30.766,20.241,48.176.139,6.976-1.258,13.618-2.978,20.239.534-3.474,1-6.075,1.123-7.172,2.322-21.15-12.5-73.992-76.873-73.4M712.068,207.418a41.706,41.706,0,0,1-2.416,4.031c5.421-22.395-11.864-49.353-28.589-61.236a55.5,55.5,0,0,1-8.417-6.985c.235.183.468.372.7.553,10.744,8.245,24.343,11.334,34.536,20.354,12.69,11.23,11.471,29.313,4.183,43.283" transform="translate(-113.911 0)" fill="#41363c"/>
    <rect id="Rectangle_46" data-name="Rectangle 46" width="242.905" height="17.964" transform="translate(179.714 390.429)" fill="#648c7d"/>
    <path id="Path_79" data-name="Path 79" d="M234.3,237.039c-13.593-5.377-23.063-16.287-29.6-28.872-.1-.643-.176-1.187-.234-1.64a20.064,20.064,0,0,1-2.953.911,25.6,25.6,0,0,1-2.652.444L180.7,279.327s18.423-2.243,30.444-8.4a51.036,51.036,0,0,0,18.475-16.653s-9.245-5.908-16.653-20.3a81.888,81.888,0,0,1-5.583-14.035c6.506,9.085,14.939,16.531,25.88,20.859,2.343.927,3.35-2.849,1.037-3.763" transform="translate(-39.644 -45.31)" fill="#41363c"/>
    <path id="Path_80" data-name="Path 80" d="M180.2,244.29l-33.979-11.232v-63.23l45.535,28.883Z" transform="translate(-32.08 -37.259)" fill="#f6adc0"/>
    <path id="Path_81" data-name="Path 81" d="M166.295,189.9c.725,1.916,1.464,3.826,2.242,5.721.077.188.927,2.2.723,1.733q.193.451.388.9c3.066,7,6.4,14.613,10.976,19.713a63.638,63.638,0,0,0,8.739,8.168l6.721-26.511-33.7-21.377q1.745,5.894,3.915,11.652" transform="translate(-35.625 -39.105)" fill="#41363c"/>
    <path id="Path_82" data-name="Path 82" d="M495.437,387.432c3.123,15.092-2.862,23.679-2.862,23.679-4.023,0-11.218-33.02-13.23-39.618-2.122-6.958-2.122-18.667-2.122-18.667,7.806,0,16.815,27.852,18.213,34.607" transform="translate(-104.699 -77.407)" fill="#231f20"/>
    <path id="Path_83" data-name="Path 83" d="M527.266,319.887c-.047,8.373-9.566,15.306-15.921,25.026-.829,1.267-6,11.763-2.862,13.919,8.807,6.057,21.978-3.961,22.9,0,2.342,10.087-42.043,31.77-44.527,30.478C472.035,381.6,477,353.3,477,344.914c0,0,12.173-8.314,23.938-18.215,15.769-13.27,26.35-10.68,26.328-6.812" transform="translate(-104.474 -69.496)" fill="#f6adc0"/>
    <path id="Path_84" data-name="Path 84" d="M409.113,334.739s-68.705,16.71-109.06,27.114c0,0-83.448-88.12-105.593-91.228-25.744-3.613-33.859,34.8-22.988,76.965,4.793,18.593,58.885,62.865,114.066,83.033l138.927-37.6s-16.332-37.074-15.351-58.286" transform="translate(-36.588 -59.321)" fill="#fff"/>
    <path id="Path_85" data-name="Path 85" d="M332.867,386.373a51.054,51.054,0,0,0-8.474,15.442c-.575,1.8,2.252,2.57,2.823.778a48.9,48.9,0,0,1,8.178-14.742c1.147-1.5-1.4-2.955-2.528-1.478" transform="translate(-71.152 -84.632)" fill="#43383e"/>
    <path id="Path_86" data-name="Path 86" d="M153.253,255.287c21.1,50.466,34.714,160.237,31.592,201.361H23.389C23.389,408.506,61.2,272.9,61.2,272.9c29.972-62.913,69.735-71,92.054-17.616" transform="translate(-5.131 -48.255)" fill="#fff"/>
    <path id="Path_87" data-name="Path 87" d="M117.058,352.069c-.344,10.147-.2,20.831,1.482,30.585,1.5,8.693,2.372,17.6,5.151,26.02,2.305,6.981,5.983,13.162,12.98,17.383A41.54,41.54,0,0,0,159,432.025c12.285.022,24.537-3,37.052-5.953-5.543-10.285-13.176-22.635-22.193-44.2-16.335-39.071-20.321-71.541-48.943-85.242-3.987,18.257-7.221,36.739-7.855,55.441" transform="translate(-25.648 -65.078)" fill="#41363c"/>
    <path id="Path_88" data-name="Path 88" d="M429.129,453.679c0,22.377-4.3,29.4-8.326,29.4s-2.32-38.94-2.32-45.838a63.741,63.741,0,0,1,2.32-14.921c7.806,0,8.326,24.457,8.326,31.355" transform="translate(-91.733 -92.654)" fill="#231f20"/>
    <path id="Path_89" data-name="Path 89" d="M502.325,487.135h-88.1V441.859s28.1-6.765,64.841,13.791c28.164,15.759,23.261,31.484,23.261,31.484" transform="translate(-90.877 -96.706)" fill="#f6adc0"/>
    <path id="Path_90" data-name="Path 90" d="M430.306,484.225c-4.643-2.425-9.246-4.925-13.865-7.395-.738-.393-1.479-.78-2.217-1.172v19.126h38.934c-7.716-3.31-15.39-6.662-22.852-10.558" transform="translate(-90.877 -104.355)" fill="#231f20"/>
    <path id="Path_91" data-name="Path 91" d="M354.362,390.942s-76.458-4.161-118.133-4.161c0,0-58.806-106.163-79.474-114.7-24.027-9.926-41.475,25.246-41.475,68.789,0,19.2,41.326,75.575,89.724,108.88H354.362s-6.245-38.511,0-58.807" transform="translate(-25.292 -59.321)" fill="#fff"/>
    <path id="Path_92" data-name="Path 92" d="M145.471,428.137a169.4,169.4,0,0,0,16.786,18.457,286.511,286.511,0,0,0,49.351,38.515c2.14,1.336,3.881-2.16,1.766-3.48a286.364,286.364,0,0,1-48.527-37.956,158.706,158.706,0,0,1-16.129-17.7c-1.506-2-4.766.149-3.247,2.166" transform="translate(-31.829 -93.279)" fill="#41363c"/>
    <path id="Path_93" data-name="Path 93" d="M370.829,388.894c-14.587,0-29.173-.041-43.756.142-13.605.17-27.2-.318-40.81-.029q-16.313.345-32.6-.066c-.02-.222-.046-.442-.083-.66-.7-4.122-3.82-7.751-5.789-11.341-3.029-5.523-5.777-11.2-8.489-16.881-3.581-7.5-7.374-14.893-11.12-22.318-10.418-20.655-20.614-41.448-31.5-61.862-.684-1.283-3.068-7.456-5.517-5.581-1.969,1.507-.029,4.9,1.97,3.37-1.361,1.042-2.05.053-2.476-.52.072.1.134.2.2.3.207.322.4.656.588.99.713,1.243,1.386,2.51,2.06,3.775,2.163,4.056,4.263,8.146,6.362,12.236q8.687,16.922,17.213,33.927c4.582,9.082,9.138,18.18,13.757,27.243,1.977,3.882,3.848,7.8,5.725,11.733,2.5,5.246,5.1,10.445,7.859,15.56,2.6,4.821,6.326,8.459,4.662,14.181-1.682,5.782-4.745,11.187-7.435,16.545-1.126,2.243,2.24,4.22,3.37,1.97,1.966-3.916,3.951-7.818,5.7-11.84a42.829,42.829,0,0,0,2.6-6.93q16.483.452,32.954.073c13.612-.3,27.2.108,40.81.029q21.876-.129,43.756-.142a1.953,1.953,0,0,0,0-3.9" transform="translate(-41.759 -59.224)" fill="#41363c"/>
    <path id="Path_94" data-name="Path 94" d="M201.968,126.083c5.43-31.491-3.634-50.424-3.634-50.424s-5.5.836-15.352,6.377c-12.49,7.025-15.869,27.105-24.719,34.347-5.724,4.684-16.6,7.545-16.6,7.545,0,.458-.02.941-.049,1.439-.24-1.991-1.673-7.943-10.249-7.943-4.689,0-9.726,5.892-9.726,13.01s1.236,16.436,19.19,18.735c8.231,21.661,32.06,33.258,47.877,29.663,17.173-3.9,15.352-25.239,15.872-31.962.162-2.1,3.864-.433,5.2-4.727,1.849-5.924-9.116-8.513-7.815-16.059" transform="translate(-26.687 -16.599)" fill="#f6adc0"/>
    <path id="Path_95" data-name="Path 95" d="M217.605,124.5c-1.347,0-2.439,2.489-2.439,5.562s1.092,5.562,2.439,5.562,2.439-2.489,2.439-5.562-1.092-5.562-2.439-5.562" transform="translate(-47.206 -27.315)" fill="#41363c"/>
    <path id="Path_96" data-name="Path 96" d="M218.6,98.867l-9.2,1.332c-3.293.476-5.781,2.194-5.559,3.837s3.074,2.59,6.367,2.114l9.2-1.331c3.293-.476,5.781-2.2,5.559-3.839s-3.075-2.589-6.367-2.113" transform="translate(-44.717 -21.664)" fill="#41363c"/>
    <path id="Path_97" data-name="Path 97" d="M211.271,110.364c-7.068,0-12.818,7.026-12.818,15.663s5.75,15.663,12.818,15.663,12.818-7.026,12.818-15.663-5.75-15.663-12.818-15.663m0,29.765c-6.207,0-11.256-6.326-11.256-14.1s5.049-14.1,11.256-14.1,11.256,6.326,11.256,14.1-5.049,14.1-11.256,14.1" transform="translate(-43.539 -24.213)" fill="#41363c"/>
    <path id="Path_98" data-name="Path 98" d="M186.151,156.812a7.318,7.318,0,1,1-7.318-7.318,7.318,7.318,0,0,1,7.318,7.318" transform="translate(-37.629 -32.798)" fill="#ed6049"/>
    <path id="Path_99" data-name="Path 99" d="M132.1,143.162c3.224.712,4.968,2.991,6,6,.61,1.774,3.439,1.012,2.823-.778-1.356-3.942-3.811-7.111-8.048-8.047-1.839-.407-2.621,2.415-.778,2.823" transform="translate(-28.75 -30.781)" fill="#3c2415"/>
    <path id="Path_100" data-name="Path 100" d="M209.767,173.256c5.389,0,.009,14.028-5.841,14.028s-9.965-5.375-11.427-9.367c-1.853-5.061-1.108-9.758,4.742-9.758s4.329,5.1,12.526,5.1" transform="translate(-42.035 -36.893)" fill="#41363c"/>
    <path id="Path_101" data-name="Path 101" d="M192.809,170.278c-1.59,1.806-1.491,4.872-.308,8.1,1.337,3.652,4.9,8.441,9.979,9.232-.543-6.984-4.258-13-9.672-17.336" transform="translate(-42.038 -37.357)" fill="#ed6049"/>
    <path id="Path_102" data-name="Path 102" d="M97.167,121.66c0-7.118,5.037-13.01,9.726-13.01,8.577,0,10.01,5.952,10.249,7.943.03-.5.049-.98.049-1.438,0,0,10.875-2.862,16.6-7.546,8.85-7.241,12.229-27.321,24.719-34.347,9.85-5.541,15.352-6.376,15.352-6.376s-6.431-28.383-49.569-32.4C94.972,31.763,67.439,52.234,60.944,77c-.023.057-.052.107-.07.169-7.631,24.931-11.288,50.854-18.551,75.883a136.808,136.808,0,0,1-10.457,26.833c-4.31,8.014-10.457,16.144-19.588,18.736-2.418.686-1.389,4.453,1.037,3.763,18.312-5.2,26.3-27.648,31.437-43.883,6.031-19.06,9.523-38.771,14.054-58.219-1.281,15.213-4.535,40.372-11.4,60.28a150.534,150.534,0,0,1-26.931,47.617c10.5,8.855,48.4,43.323,110.456,31.224,0,0,12.067-14.669-12.88-74.157-1.941-4.628-1.677-13.317-.613-22.284-.38-.841-.746-1.691-1.079-2.564-17.954-2.3-19.19-11.616-19.19-18.735" transform="translate(-2.391 -7.513)" fill="#41363c"/>
    <path id="Path_103" data-name="Path 103" d="M543.318,350.752c0,10.644-4.423,19.272-9.878,19.272s-9.879-8.628-9.879-19.272,4.423-19.272,9.879-19.272,9.878,8.628,9.878,19.272" transform="translate(-114.865 -72.724)" fill="#43383e"/>
    <path id="Path_104" data-name="Path 104" d="M204.578,234.551c-.148-12.149-5.054-24.338-8.735-35.75-.518-1.6-.9-2.63-1.386-4.273-1.194.672-2.544.707-3.773,1.133.685,2.282,1.51,4.537,2.229,6.753,1.991,6.132,3.965,12.273,5.549,18.525C199.8,226.2,204.753,248.156,192,242.6c-5.93-2.582-10.049-9.826-13.337-15.024-3.588-5.67-6.623-11.656-10.078-17.4-11.284-18.758-19.935-39.01-32.02-57.3-1.381-2.09-4.763-.137-3.37,1.969,12.092,18.3,20.546,38.646,32.018,57.3,6.815,11.08,12.131,25.206,23.173,32.889,3.373,2.346,8.726,3.054,12.238.61,3.492-2.43,4-7.2,3.949-11.1" transform="translate(-29.15 -33.344)" fill="#648c7d"/>
    <path id="Path_105" data-name="Path 105" d="M208.988,270.719c.945,17.219,5.475,33.953,14.411,48.772,8.159,13.531,19.87,24.607,33.192,32.979,28.689,18.027,65.889,23.613,99.02,18.027,35.6-6,66.614-27.331,102.692-31.537,2.469-.288,2.5-4.194,0-3.9-41.641,4.855-77.218,31.388-119.483,33.336-33.5,1.544-68.992-7.332-94.5-29.919-19.584-17.342-30.01-41.864-31.43-67.755-.137-2.5-4.041-2.517-3.9,0" transform="translate(-45.849 -58.98)" fill="#648c7d"/>
    <path id="Path_106" data-name="Path 106" d="M140.141,152.687a6.543,6.543,0,1,1-6.525-6.063,6.307,6.307,0,0,1,6.525,6.063" transform="translate(-27.883 -32.168)" fill="#648c7d"/>
  </g>
</svg>
