<svg xmlns="http://www.w3.org/2000/svg" width="45" height="45" viewBox="0 0 78.316 78.316">
  <path id="Path_108" data-name="Path 108" d="M42.221,76.816H34.6A11.511,11.511,0,0,1,23.085,65.306v-7.8a3.776,3.776,0,0,0-3.776-3.776h-7.8A11.511,11.511,0,0,1,0,42.221V34.6A11.511,11.511,0,0,1,11.511,23.085h4.474a2.973,2.973,0,0,1,0,5.945H11.511A5.566,5.566,0,0,0,5.945,34.6v7.625a5.566,5.566,0,0,0,5.565,5.566h7.8a9.722,9.722,0,0,1,9.723,9.723v7.8A5.565,5.565,0,0,0,34.6,70.871h7.624a5.565,5.565,0,0,0,5.565-5.565V59.538a18.1,18.1,0,0,0-5.337-12.885L30.164,34.368a24.014,24.014,0,0,1-7.079-17.09V11.511A11.511,11.511,0,0,1,34.6,0h7.624A11.511,11.511,0,0,1,53.731,11.511v7.8a3.777,3.777,0,0,0,3.777,3.777h7.8A11.511,11.511,0,0,1,76.816,34.6v7.625A11.511,11.511,0,0,1,65.306,53.732H60.837a2.973,2.973,0,1,1,0-5.945h4.469a5.566,5.566,0,0,0,5.565-5.566V34.6a5.565,5.565,0,0,0-5.565-5.565h-7.8a9.722,9.722,0,0,1-9.723-9.723v-7.8a5.565,5.565,0,0,0-5.565-5.565H34.6a5.565,5.565,0,0,0-5.565,5.565v5.767a18.109,18.109,0,0,0,5.337,12.887L46.653,42.449a24,24,0,0,1,7.079,17.089v5.767A11.511,11.511,0,0,1,42.221,76.816" transform="translate(0.75 0.75)" fill="white" stroke="" stroke-width="1.5"/>
</svg>
