<?xml version="1.0" standalone="no"?>
<!DOCTYPE svg PUBLIC "-//W3C//DTD SVG 20010904//EN"
 "http://www.w3.org/TR/2001/REC-SVG-20010904/DTD/svg10.dtd">
<svg version="1.0" xmlns="http://www.w3.org/2000/svg"
 width="700.000000pt" height="700.000000pt" viewBox="0 0 700.000000 700.000000"
 preserveAspectRatio="xMidYMid meet">
<metadata>
Created by potrace 1.14, written by Peter Selinger 2001-2017
</metadata>
<g transform="translate(0.000000,700.000000) scale(0.100000,-0.100000)"
fill="#000000" stroke="none">
<path d="M3020 6993 c-264 -45 -445 -135 -615 -307 -118 -119 -196 -244 -249
-399 -52 -152 -55 -197 -52 -662 2 -236 6 -441 9 -454 3 -12 9 -43 12 -68 23
-202 119 -492 235 -710 141 -266 202 -336 939 -1076 350 -351 643 -646 652
-655 34 -36 130 -171 174 -247 78 -132 162 -342 180 -448 3 -17 10 -45 15 -62
9 -32 17 -82 26 -180 9 -89 8 -692 0 -750 -33 -215 -209 -391 -423 -421 -26
-4 -226 -7 -443 -7 -436 0 -453 2 -573 66 -126 66 -229 211 -253 355 -4 20 -8
231 -9 467 -2 456 -5 499 -52 629 -87 245 -308 463 -543 537 -141 44 -185 47
-629 48 -469 1 -509 6 -611 63 -123 69 -205 171 -245 304 -16 52 -18 107 -20
464 -1 293 2 424 11 473 33 176 179 332 354 382 55 15 108 19 332 20 l267 2
55 27 c213 105 203 402 -17 493 -50 20 -64 21 -342 18 -294 -3 -314 -5 -418
-31 -341 -87 -626 -355 -736 -695 -47 -145 -51 -202 -48 -709 2 -256 6 -475
10 -488 3 -12 13 -49 21 -83 87 -336 348 -619 675 -729 150 -50 179 -53 657
-56 390 -2 457 -5 500 -20 124 -42 211 -144 230 -269 3 -26 7 -239 9 -473 1
-365 4 -439 19 -506 91 -412 389 -711 809 -814 63 -15 129 -17 552 -17 264 0
498 3 520 7 344 57 631 267 784 574 44 88 86 220 98 304 17 122 7 989 -12
1020 -2 3 -6 26 -10 50 -8 58 -50 228 -74 299 -94 279 -243 543 -429 756 -19
22 -321 328 -672 680 -636 640 -682 688 -757 800 -128 189 -231 441 -258 631
-3 21 -8 44 -10 51 -21 62 -26 792 -6 882 39 180 188 333 368 379 61 15 120
17 489 17 379 -1 424 -3 474 -19 162 -55 280 -166 332 -313 29 -83 30 -104 33
-563 1 -278 6 -455 14 -490 55 -265 220 -489 453 -614 58 -32 193 -81 256 -93
15 -3 230 -8 477 -10 481 -4 527 -8 623 -57 113 -57 210 -170 252 -293 23 -67
23 -77 25 -483 1 -454 -2 -489 -54 -593 -61 -124 -169 -216 -300 -258 -60 -19
-93 -22 -341 -24 -260 -2 -278 -3 -325 -24 -99 -44 -155 -123 -163 -231 -4
-57 -1 -76 20 -121 31 -67 88 -123 148 -147 39 -15 82 -17 320 -17 288 0 352
5 452 30 238 62 451 209 593 410 69 97 94 144 134 257 56 160 60 208 60 703 0
408 -2 459 -19 540 -24 110 -64 224 -102 288 -15 26 -28 50 -28 53 0 3 -24 37
-53 77 -160 216 -393 364 -649 412 -13 3 -36 8 -53 11 -16 4 -230 8 -475 9
-395 2 -451 4 -495 20 -107 37 -192 128 -220 236 -11 39 -14 151 -14 473 -1
231 -3 430 -5 441 -2 11 -7 43 -11 70 -10 71 -52 199 -90 277 -49 99 -110 184
-193 270 -151 156 -317 245 -567 304 -32 8 -963 14 -1005 7z"/>
</g>
</svg>
